<?xml version="1.0" encoding="UTF-8"?>
<svg id="_レイヤー_2" data-name="レイヤー 2" xmlns="http://www.w3.org/2000/svg" viewBox="0 0 291.05 536.2">
  <defs>
    <style>
      .cls-1 {
        fill: #fefefe;
      }

      .cls-2 {
        fill: #371d64;
      }

      .cls-3 {
        fill: #311958;
      }

      .cls-4 {
        fill: #3b1f6b;
      }

      .cls-5 {
        fill: #341b5e;
      }

      .cls-6 {
        fill: #3c1b6c;
      }
    </style>
  </defs>
  <g id="_レイヤー_1-2" data-name="レイヤー 1">
    <g>
      <path class="cls-1" d="M73.54,18.99C89.01,9.84,105.8,4.54,123.48,1.73c20.31-3.23,40.34-1.85,60.12,3.43,27.97,7.46,51.08,22.82,70.56,43.95,8.99,7.05,13.94,17.08,19.55,26.6,3.79,6.44,6.22,13.53,9.07,20.42,2.57,7.04,4.02,14.38,5.87,21.63,1.56,9.58,2.63,19.21,2.36,28.94-.2,2.59,.14,5.21-.43,7.78-.69,2.13-.78,4.33-.68,6.54-.71,7.06-2.26,13.96-4.06,20.81-1.9,7.16-4.6,14.05-7.38,20.9-3.58,7.42-7.26,14.79-12.01,21.56-5.64,8.45-12.04,16.26-19.33,23.34-8.23,8.35-17.74,15.06-27.51,21.45-12.77,7.42-26.33,12.89-40.69,16.4-22.22,5.28-44.42,5.43-66.62-.05-16.25-4.26-31.9-9.96-45.98-19.38-8.94-6.66-17.75-13.49-25.7-21.35-6.01-7.86-13.44-14.61-18.27-23.39-3.81-7.42-8.48-14.41-11.34-22.32-4.02-9.91-6.93-20.13-8.91-30.64-1.61-9.6-2.42-19.25-1.98-28.99-.09-2.31-.03-4.6,.38-6.88,.57-1.86,.8-3.75,.64-5.69,.01-4.96,.65-9.83,2.21-14.56,3.62-12,7.2-24.02,13.18-35.13,4.36-7.78,8.93-15.43,14.31-22.56,10.61-12.38,22.06-23.83,36.01-32.53,2.09-1.31,4.05-2.93,6.7-3.03Z"/>
      <g>
        <path class="cls-4" d="M96.52,469.88c1.77-6.87,1.86-13.9,1.99-20.93-1.85-4.31-.41-8.76-.21-13.08,.21-4.57,.72-9.14,.92-13.73,1.34-4.93,.21-10.14,1.65-15.07,.44-.85,1.09-1.47,1.96-1.87,2.49-.94,4.94-.23,7.38,.23,23.51,4.42,47.01,4.38,70.53,.03,2.44-.45,4.89-1.18,7.4-.32,.89,.36,1.55,.98,2.03,1.8,1.56,4.93,.36,10.17,1.7,15.13,.15,7.73,1.22,15.4,1.59,23.12,.08,1.69,.06,3.28-.84,4.75,.04,1.01,.07,2.02,.11,3.04,.75,2.08-.18,4.33,.7,6.39,.11,3.55-.58,7.18,1.19,10.54,.46,1.59,1.07,3.15,1.14,4.83,.12,1.77,.12,3.54,.16,5.31-.29,2.45,.57,4.75,.91,7.12,.14,3.07,.28,6.13-.15,9.19-1.37,4.97-6.08,6.2-9.68,8.7-17.29,7.34-35.44,8.18-53.83,6.94-2.31-.16-4.62-.54-6.92-.8-5.5-1-10.82-2.78-16.27-4-.52-.1-1.02-.26-1.51-.46-4.79-2.93-11.05-3.76-13.87-9.57-.74-3.3-.47-6.63-.36-9.97,.37-2.45,1.24-4.84,.89-7.37,0-1.97-.02-3.95,.03-5.92,.08-1.47,.42-2.86,1.38-4.03Z"/>
        <path class="cls-6" d="M96.54,473.95v6c-1.21,2.21-1.95,4.48-1,7v11c3,4.84,8.5,5.61,13,8h1c5.13,2.14,10.31,4.07,16,4,7.42,.32,14.8,1.2,22.27,1.08,12.83-.22,25.31-1.93,37.27-6.76,.74-.3,1.63-.22,2.45-.31,2.95-2.01,7.47-2.22,8-7v-10c1.18-2.55,.13-4.78-1-7v-6c.95-.86,.7-2.51,2.03-3.11,9.24,4.94,18.29,10.09,22.9,20.28,.54,1.19,1.3,2.26,1.12,3.66,.67,2.45,.66,4.9,0,7.36-2.43,9.04-8.66,14.9-16.32,19.61-12.97,7.97-27.04,12.43-42.24,13.31-1.76,.75-3.71-.02-5.47,.71-23.5,1.59-46.36-.76-67.53-12-7.78-4.13-14.79-9.4-17.93-18.24-.38-1.06-.42-2.24-.62-3.36-.64-2.46-.65-4.93,0-7.39-.14-4.63,2.43-8.22,5.26-11.26,5.22-5.6,11.38-10.11,18.77-12.62,1.68,.36,1.15,2.17,2.03,3.06Z"/>
        <path class="cls-2" d="M188.58,405.96c-7.92,.4-15.54,2.82-23.47,3.36-13.07,.9-26.09,.9-39.16,0-7.93-.55-15.55-2.97-23.47-3.36-2.24-3.1-1.53-6.63-1.19-9.99,.37-3.59,.72-7.18,.82-10.79,.65-5.34,.98-10.7,1.2-16.07,1.46-4.52-.2-9.44,1.8-13.89,.44-.47,.96-.59,1.56-.36,1.03,7.3,6.51,8.61,12.52,9.62,17.73,2.99,35.4,2.91,53.13-.05,5.81-.97,10.58-2.84,11.9-9.34,.51-.41,1.03-.44,1.58-.09,2.41,4.01,.14,8.65,1.71,12.77,.33,1.44,.42,2.9,.42,4.36-.21,4.42,.76,8.74,1.02,13.12-.1,4.6,.96,9.11,1.03,13.69,.04,2.38,.46,4.96-1.4,7.02Z"/>
        <path class="cls-3" d="M111.55,284.1c20.98,4.52,42,5.33,63.11,.89,1.61-.34,3.24-.59,4.86-.88,2.39,3.49,2.23,7.53,2.47,11.47,.15,2.47-.15,4.98,.58,7.41,.52,5.82,.65,11.68,1.36,17.49,0,.88,.12,1.77,.05,2.65-.16,2.07,.08,4.17-.37,6.22-.55,2.09-2.28,2.65-4.07,3.2-22.56,6.92-45.12,6.74-67.69,.08-1.95-.57-3.88-1.12-4.42-3.47-.34-3.88-.55-7.76,.02-11.64,.81-2.5,.83-5.06,.66-7.65-.02-2.03,0-4.07,.28-6.09,1.03-4.19,.36-8.53,1.03-12.74,.38-2.39,.36-4.96,2.15-6.94Z"/>
        <path class="cls-5" d="M107.64,329.17c.27-.12,.55-.24,.83-.36,.35,3.09,3.03,1.94,4.69,2.47,22.59,7.16,45.15,6.06,67.69-.37,1.17-.33,1.58-1.05,1.75-2.09,.45-.25,.72-.11,.84,.38,.26,4.33-.56,8.74,1,12.97,.06,4.21,.12,8.42,.18,12.62-.23,7.63-.82,8.54-8.57,10.2-20.29,4.35-40.63,4.38-60.91,.01-8.47-1.82-8.43-2-8.68-10.23,.06-4.21,.12-8.41,.18-12.62,1.57-4.23,.72-8.65,1.02-12.98Z"/>
      </g>
    </g>
  </g>
</svg>