<?xml version="1.0" encoding="UTF-8"?>
<svg id="_レイヤー_2" data-name="レイヤー 2" xmlns="http://www.w3.org/2000/svg" viewBox="0 0 1191.84 913.93">
  <defs>
    <style>
      .cls-1 {
        fill: #341b5e;
      }
    </style>
  </defs>
  <g id="_レイヤー_1-2" data-name="レイヤー 1">
    <path class="cls-1" d="M592.94,0c104.13,.47,201.86,17.8,295.26,56.88,73.48,30.75,139.53,72.79,194.66,130.85,45.45,47.87,79.24,102.71,96.67,166.77,21.48,78.95,14.32,156.01-17.36,230.99-29.66,70.2-76.03,127.98-133.93,176.73-80.68,67.93-173.62,111.07-276.06,134.4-57.93,13.19-116.68,18.8-176.04,16.95-122.38-3.82-236.79-35.52-341.44-99.84-69.49-42.71-128.23-96.89-172.41-165.98-30.79-48.16-51.48-100.28-59.12-157.11-9.74-72.49,3-141.22,36.39-206.14,30.01-58.36,72.62-106.17,124.01-146.41,63.87-50.02,135.73-84.29,213.26-107.15,40.94-12.07,82.65-20.35,125.05-25.34,31.31-3.69,62.72-5.29,91.05-5.62Z"/>
  </g>
</svg>